# xmcd
#
# Track frame offsets: 
#        150
#        30185
#        63214
#        89817
#        109244
#        143008
#        175509
#        197567
#        222727
#        260619
#
# Disc length: 3723 seconds
#
# Revision: 0
# Processed by: cddbd v1.5.2PL0 Copyright (c) Steve Scherf et al.
# Submitted via: ExactAudioCopy v0.95b3
#
DISCID=8c0e890a
DTITLE=Jimi Hendrix  - Rockin' The USA Vol.2 -  Disc 4
DYEAR=1900
DGENRE=
TTITLE0=Stone Free (pt.1)
TTITLE1=Stone Free (pt.2)
TTITLE2=Sunshine Of Your Love
TTITLE3=Fire
TTITLE4=Hear My Train
TTITLE5=Red House
TTITLE6=Foxy Lady
TTITLE7=Like A Rolling Stone
TTITLE8=Voodoo Child (Slight Return)
TTITLE9=Purple Haze
EXTD=
EXTT0=
EXTT1=
EXTT2=
EXTT3=
EXTT4=
EXTT5=
EXTT6=
EXTT7=
EXTT8=
EXTT9=
PLAYORDER=
